<?xml version="1.0" encoding="UTF-8" standalone="no"?>
<svg
   xmlns:dc="http://purl.org/dc/elements/1.1/"
   xmlns:cc="http://creativecommons.org/ns#"
   xmlns:rdf="http://www.w3.org/1999/02/22-rdf-syntax-ns#"
   xmlns:svg="http://www.w3.org/2000/svg"
   xmlns="http://www.w3.org/2000/svg"
   xmlns:sodipodi="http://sodipodi.sourceforge.net/DTD/sodipodi-0.dtd"
   xmlns:inkscape="http://www.inkscape.org/namespaces/inkscape"
   width="500"
   height="500"
   viewBox="0 0 51.405622 51.4"
   preserveAspectRatio="xMinYMin meet"
   version="1.1"
   id="svg6"
   sodipodi:docname="symfony_text_teal600_500.svg"
   inkscape:version="1.0.1 (3bc2e813f5, 2020-09-07)">
  <metadata
     id="metadata12">
    <rdf:RDF>
      <cc:Work
         rdf:about="">
        <dc:format>image/svg+xml</dc:format>
        <dc:type
           rdf:resource="http://purl.org/dc/dcmitype/StillImage" />
        <dc:title></dc:title>
      </cc:Work>
    </rdf:RDF>
  </metadata>
  <defs
     id="defs10" />
  <sodipodi:namedview
     pagecolor="#ffffff"
     bordercolor="#666666"
     borderopacity="1"
     objecttolerance="10"
     gridtolerance="10"
     guidetolerance="10"
     inkscape:pageopacity="0"
     inkscape:pageshadow="2"
     inkscape:window-width="1842"
     inkscape:window-height="1051"
     id="namedview8"
     showgrid="false"
     inkscape:zoom="1.4315884"
     inkscape:cx="250"
     inkscape:cy="250"
     inkscape:window-x="-9"
     inkscape:window-y="-9"
     inkscape:window-maximized="1"
     inkscape:current-layer="layer1"
     inkscape:document-rotation="0" />
  <g
     inkscape:groupmode="layer"
     id="layer1"
     inkscape:label="text_black"
     style="display:inline">
    <path
       d="M 43.2952,0.00642544 C 39.430074,0.14109014 36.056646,2.2686736 33.545475,5.2116772 30.764941,8.4385765 28.915122,12.265967 27.582299,16.17273 25.19822,14.221132 23.358817,11.694609 19.533872,10.592914 16.577434,9.7450917 13.472178,10.095279 10.61664,12.220187 9.2638752,13.229429 8.3319709,14.755035 7.888788,16.18908 c -1.1473941,3.726913 1.2063265,7.043589 2.275442,8.234465 l 2.33735,2.50185 c 0.481877,0.4905 1.642366,1.770261 1.075069,3.605029 -0.613135,1.994702 -3.021025,3.286354 -5.4908246,2.525335 C 6.9827781,32.71984 5.3981538,31.899069 5.7529383,30.743271 5.8996738,30.270607 6.2383858,29.916852 6.4199448,29.508103 6.5866221,29.157024 6.6660915,28.89364 6.7166899,28.739058 7.167909,27.267556 6.5515008,25.353117 4.9734246,24.867076 3.5013075,24.41641 1.9949619,24.773435 1.4109963,26.666767 c -0.66224436,2.150771 0.3681781,6.054262 5.888171,7.75407 6.4673747,1.984595 11.9382577,-1.532443 12.7141987,-6.119662 0.488722,-2.873145 -0.81017,-5.007565 -3.189785,-7.752882 l -1.938814,-2.141556 c -1.174479,-1.17185 -1.577779,-3.169228 -0.362225,-4.704346 1.025661,-1.294922 2.486467,-1.847552 4.878881,-1.197713 3.492186,0.947112 5.048832,3.367212 7.646318,5.319107 -1.072389,3.51347 -1.773327,7.040021 -2.407891,10.202412 l -0.386631,2.357671 c -1.856666,9.727073 -3.274017,15.068178 -6.957287,18.13455 -0.742012,0.527065 -1.802793,1.316028 -3.401704,1.371023 -0.838148,0.02586 -1.108998,-0.549955 -1.120606,-0.800853 -0.01994,-0.587709 0.475923,-0.857038 0.805408,-1.121612 0.492293,-0.26814 1.236686,-0.71286 1.186087,-2.13769 -0.05358,-1.683755 -1.450092,-3.143663 -3.468672,-3.076777 -1.5120011,0.05143 -3.8166115,1.472691 -3.7299989,4.074128 0.090185,2.687051 2.5977839,4.700779 6.3783809,4.573249 2.020961,-0.06927 6.533747,-0.890927 10.981351,-6.171389 5.176518,-6.053075 6.62423,-12.99232 7.713287,-18.071229 l 1.215553,-6.705292 c 0.675341,0.08086 1.39741,0.134665 2.182877,0.153393 6.447135,0.135854 9.672042,-3.19955 9.719961,-5.625596 0.03185,-1.468231 -0.964644,-2.912979 -2.359673,-2.880279 -0.998575,0.02824 -2.253119,0.692052 -2.554329,2.071399 -0.294067,1.353187 2.051619,2.574385 0.218168,3.760505 -1.302463,0.841877 -3.637432,1.435234 -6.925736,0.953057 l 0.597955,-3.300623 c 1.220315,-6.2590845 2.72547,-13.9581601 8.435356,-14.1454421 0.416098,-0.021106 1.938813,0.018728 1.974232,1.024403 0.01042,0.3359186 -0.07292,0.4215332 -0.466696,1.1905788 -0.400919,0.5995998 -0.552118,1.1100177 -0.533367,1.6965375 0.05506,1.5981401 1.271807,2.6484058 3.031442,2.5850867 2.356102,-0.076102 3.033824,-2.3671856 2.99513,-3.5437924 -0.09525,-2.7646398 -3.012691,-4.51111912 -6.875436,-4.38477806 z"
       fill="#FFF"
       id="path4"
       style="fill:#00897b;stroke-width:0.297455" />
  </g>
</svg>
